<svg width="24" height="24" viewBox="0 0 24 24" fill="none" xmlns="http://www.w3.org/2000/svg">
  <circle cx="12" cy="12" r="11" fill="#2775CA"/>
  <circle cx="12" cy="12" r="6.2" stroke="white" stroke-width="1.5"/>
  <path d="M12 8.7C10.9 8.7 10.1 9.3 10.1 10.2C10.1 11 10.7 11.4 11.9 11.7C13.2 12 13.8 12.4 13.8 13.2C13.8 14.1 13 14.8 11.8 14.8C10.9 14.8 10 14.5 9.4 13.9L8.6 15.1C9.3 15.8 10.3 16.2 11.3 16.3V17.4H12.7V16.3C14.1 16.1 15.2 15.2 15.2 13.8C15.2 12.5 14.3 11.9 12.9 11.5C11.8 11.2 11.4 10.9 11.4 10.3C11.4 9.7 11.9 9.2 12.7 9.2C13.4 9.2 14.1 9.5 14.6 9.9L15.4 8.8C14.8 8.2 13.9 7.9 12.9 7.8V6.7H11.5V7.8C10.1 8 9 8.9 9 10.2C9 11.5 9.9 12.1 11.3 12.5C12.4 12.8 12.8 13.1 12.8 13.7C12.8 14.3 12.3 14.8 11.5 14.8" fill="white"/>
</svg>
